<mxfile host="app.diagrams.net" modified="2023-09-22T10:51:40.752Z" agent="Mozilla/5.0 (Macintosh; Intel Mac OS X 10_15_7) AppleWebKit/537.36 (KHTML, like Gecko) Chrome/117.0.0.0 Safari/537.36" version="21.8.0" etag="tj6pN7Kef7EIXTb6vch6" type="github">
  <diagram name="Pagina-1" id="OXpRI2DQhZ9dpCUs1msj">
    <mxGraphModel>
      <root>
        <mxCell id="0" />
        <mxCell id="1" parent="0" />
      </root>
    </mxGraphModel>
  </diagram>
</mxfile>
